<svg xmlns="http://www.w3.org/2000/svg" width="349.915" height="458.175" viewBox="0 0 349.915 458.175">
  <path id="abacusdesk-logo" d="M2716.06,8597.685a10.585,10.585,0,0,1-4.6-.892c-4.063-2.187-1.775-10.7-1.231-13.863,1.318-7.677-1.857-4.707,9.356-9.516,2.329-1,4.589-1.89,6.821-2.786s4.278-1.853,6.456-2.81l20.254-8.226c0,4.419-1.725,12.06-2.946,15.583-2.155,6.2-6.254,12.719-11.662,16.479-5.746,4-14.823,6.035-22.445,6.035Zm-69.989-60.405c-2.4,0-3.349.344-5.833.344-10.747,0-20.519-.266-29.171-6.516a23.7,23.7,0,0,1-6.716-7.7c-6.474-11.675-1.052-29.125,3.335-39.968,1.221-3.024,5.709-8.651,7.938-10.938A18.834,18.834,0,0,0,2617,8470.8a19.653,19.653,0,0,1,1.523-1.569c.76-.728.956-.75,1.707-1.381,2.1-1.753,1.272-1.487,5-4.269,8.295-6.19,14.741-8.675,26.325-8.675,0,3.752-.4,6.978-.668,10.317-.146,1.838-.224,3.641-.343,5.146l-3.7,56.7c-.476,3.51-.05,7.078-.778,10.2Zm165.027-44.615c.325-3.916,1.185-8.363,1.734-12.334l3.349-24.793c.5-4.108.92-8.944,1.78-12.637,5.069.426,13.469,3.839,16.118,7.9,5.513,8.464-1.967,20.208-7.618,26.687-.727.828-.924,1.2-1.725,2.05s-.947,1.239-1.711,2.063c-1.437,1.551-10.166,10.591-11.927,11.066Zm-9.951-48.4a28.89,28.89,0,0,1-.718,3.4l-7.517,38.472c-.764,4.648-1.707,9.607-2.745,14.073l-20.936,4.795c-2.942.677-2.228.014-3.5,5.087l-3.587,13.574c-.686,2.37-1.02,4.5-1.711,6.867-.673,2.3-1.318,4.507-1.839,6.743l-40.357,12.829c-2,.668-4.026,1.478-5.961,1.931l3.106-24.349a74.758,74.758,0,0,0,1.011-8.258c-1.821,0-21.164,5.037-24.637,5.906-1.926.48-6.707,1.954-8.3,1.99l9.608-77.565H2728.4c1.194-2.494,5.829-36.638,7.206-42.558l44.117,3.578a59.357,59.357,0,0,0,6.318.54l-3.921,31.165c-.293,2.232-.284,1.789,4.95,1.779q7.034-.006,14.064,0Zm-2.745-73.1-27.849-2.689c-4.827-.508-9.653-.765-14.11-1.332l-13.972-1.473c0-16.731,3.83-30.369,19.211-38.1,4.667-2.343,16.2-5.114,19.773-3.651a31.124,31.124,0,0,1,5.325,2.915c.7.517,1.583,1.249,2.26,1.856,4.136,3.688,6.428,6.269,8.67,11.918,3,7.559,3.253,15.7,2.118,23.75a40.8,40.8,0,0,1-1.432,6.8ZM2627.193,8210.89c0,14.119.847,20.222,5.193,33.247,1.322,3.967,2.768,7.256,4.319,11.122l13.231,33.1c2.983,7.554,6.058,14.6,9.068,22.162,4.406,11.067,9.209,21.612,13.629,32.7,5.119,12.842,10.87,25.373,16.031,38.192,1.528,3.8,6.465,14.082,6.465,17.212-2.919,0-4.383-1.9-6.414-3.542-5.476-4.433-10.152-9.424-15.29-14.562l-22.468-22.144c-1.043-1.047-1.739-1.381-2.754-2.388l-22.464-22.147c-1.052-1.066-1.739-1.41-2.754-2.394-3.143-3.024-6.981-7.59-10.2-10.047-3.481-2.657-6.6-6.963-10.051-9.851-3.582-3-6.73-6.561-10.1-9.8-.975-.942-1.583-1.213-2.585-2.219l-12.691-12.362c-6.895-6.9-4.671-4.707-12.911-7.333-14.878-4.74-43.733-13-58.369-13-7.165,0-4.873,4.236-1.8,7.293a41.752,41.752,0,0,0,4.543,4.035l82.246,62.217c.888.668,1.519,1.053,2.407,1.711l53.327,40.01c.943.686,1.551,1.23,2.493,1.967l24.312,18.236c3.98,2.955,2.654,1.679-8.633,3.573a271.314,271.314,0,0,0-27.762,6.208l-13.327,3.83c-2.173.731-4.049,1.258-6.158,2.076-14.7,5.692-24.252,9.118-38.028,17.217a108.476,108.476,0,0,0-21.9,16.533c-22.834,22.84-26.389,48.876-14.027,79.066.97,2.37,1.766,4.443,2.905,6.707a58.809,58.809,0,0,0,5.371,9.389c3.742,4.881,7.723,8.372,12.27,12.439a69.2,69.2,0,0,0,5.724,4.228c12.174,8.876,30.141,13.528,45.49,13.528a144.158,144.158,0,0,0,57.3-13.382,8.9,8.9,0,0,1,3.427-1.377c-2.375,4.95-3.7,15.171-4.52,20.876-1.345,9.4-1.2,19.417,1.729,28.252,4.031,12.155,14.635,18.14,27.153,18.14a57.257,57.257,0,0,0,27.336-6.634c7.411-3.705,13.963-9.123,19.76-14.9l10.344-12.645c13.089-19.312,19.22-38.989,24.559-61.576a41.8,41.8,0,0,0,1.029-4.8c5.559-.461,18.25-6.5,23.191-9.749.842-.554,1.318-.764,2.1-1.327.764-.553,1.217-.851,2.009-1.422a87.857,87.857,0,0,0,10.866-9.036,71.467,71.467,0,0,0,9.388-10.861l5.266-8.116c.814-1.409,1.331-2.823,2.219-4.3a35.76,35.76,0,0,0,2.247-4.616,114.937,114.937,0,0,0,6.46-20.309c1.647-7.014,3.134-12.581,3.5-19.838.078-1.551.393-1.464.357-3.079a55.031,55.031,0,0,0-1.8-11.6,29.086,29.086,0,0,0-4.722-8.661c-4.694-6.144-13.263-7.544-20.936-7.544-3.921,0-6.638.755-9.951,1.029,2.548-5.312,7.142-27.556,8.148-32.693,3.587-18.382,5.8-43.71,1.048-62.651-1.784-7.118-4.012-14.013-8.025-20.116a49.119,49.119,0,0,0-14.073-14.063,43.515,43.515,0,0,0-23.466-7.416c-6.652,0-13.679,2.452-18.831,4.158a59.31,59.31,0,0,0-11.474,5.682l-11.3,8.611a61.8,61.8,0,0,0-7.014,7.74c-14.407,17.816-20.693,40.732-23.5,63.324a155.441,155.441,0,0,0-1.281,18.968c0,1.784.27,1.652-.714,2.375a44.4,44.4,0,0,0-1.592-6.643c-4.452-15.336-8.862-31.385-13.542-46.515L2657.6,8224.4c-1.322-4.479-2.306-8.783-3.692-13.125-3.458-10.83-6.41-22.312-9.6-33.293a45.6,45.6,0,0,0-2.018-6.561c-2.109,1.409-4.465,5.206-5.856,7.53-5.559,9.292-9.242,19.769-9.242,31.938Z" transform="translate(-2501.336 -8171.422)" fill="#ef9b11" fill-rule="evenodd"/>
</svg>
